<svg width="301" height="323" viewBox="0 0 301 323" fill="none" xmlns="http://www.w3.org/2000/svg">
<path d="M144.418 41.877H161.947V62.3492H144.418V41.877Z" fill="#F58D79"/>
<path d="M158.369 47.3902C158.369 47.3902 147.756 51.6504 147.868 56.9976C147.981 62.3447 145.872 61.7257 145.872 61.7257L144.418 59.1374V44.6362L158.865 45.8061L158.374 47.3951L158.369 47.3902Z" fill="#F37260"/>
<path d="M158.497 47.848L157.909 62.978L162.076 60.7212L161.948 45.8154L158.497 47.848Z" fill="#F9B5A9"/>
<path d="M172.569 22.2238C173.997 20.1132 175.451 15.078 170.741 8.99483C170.639 8.86322 170.557 8.72187 170.5 8.56589C169.973 7.14745 166.149 0.966797 151.522 0.966797C136.895 0.966797 133.859 8.23443 133.219 9.71135C133.153 9.86733 133.101 10.0184 132.989 10.15C132.103 11.1785 127.454 15.2583 132.303 23.2766C132.615 23.7933 133.199 24.115 133.823 24.115H169.221C169.814 24.115 172.246 22.7015 172.569 22.2238Z" fill="#BCBEC0"/>
<path d="M132.32 23.1155C132.32 23.1155 132.883 24.2464 134.404 23.9539L134.675 12.1775C134.675 12.1775 141.244 14.0298 151.176 14.0932C151.176 14.0932 144.326 11.8363 143.604 6.38195C142.877 0.932443 146.886 1.08355 146.886 1.08355C146.886 1.08355 135.991 2.5556 133.006 9.98896C133.006 9.98896 127.006 14.6683 132.32 23.1155Z" fill="#939598"/>
<path d="M168.65 23.6126C168.65 23.6126 171.87 20.3371 175.198 22.5159C178.787 24.8653 176.053 34.4873 168.419 33.1712L168.65 23.6126Z" fill="#F9B5A9"/>
<path d="M171.923 29.1886C171.405 29.1886 170.986 28.403 170.986 27.4338C170.986 26.4647 171.405 25.6791 171.923 25.6791C172.44 25.6791 172.859 26.4647 172.859 27.4338C172.859 28.403 172.44 29.1886 171.923 29.1886Z" fill="#F27386"/>
<path d="M162.99 10.5452C162.99 10.5452 163.349 19.9965 168.75 21.2638C168.75 21.2638 168.76 37.1785 167.875 39.9569C167.26 41.8725 159.012 50.1491 149.377 50.1491C139.261 50.1491 135.708 42.3356 134.786 38.9528C133.865 35.57 133.604 20.3182 133.604 20.3182C133.604 20.3182 134.413 15.5121 134.413 11.8807C134.413 11.8807 138.083 13.7184 148.481 13.7184C158.879 13.7184 162.996 10.5452 162.996 10.5452H162.99Z" fill="#F8A38E"/>
<path d="M149.64 20.4593C153.433 20.1278 157.002 20.2984 160.744 20.7956C157.447 18.9726 153.049 18.7923 149.64 20.4593Z" fill="#3C1B4E"/>
<path d="M141.469 20.4595C139.349 18.7876 135.863 19.002 133.892 20.7958C136.477 20.3132 138.807 20.1231 141.469 20.4595Z" fill="#3C1B4E"/>
<path d="M153.184 29.657C152.076 29.657 151.178 28.184 151.178 26.3668C151.178 24.5497 152.076 23.0767 153.184 23.0767C154.293 23.0767 155.191 24.5497 155.191 26.3668C155.191 28.184 154.293 29.657 153.184 29.657Z" fill="#3C1B4E"/>
<path d="M153.756 27.9856C153.106 27.9856 152.579 27.1192 152.579 26.0505C152.579 24.9817 153.106 24.1154 153.756 24.1154C154.406 24.1154 154.934 24.9817 154.934 26.0505C154.934 27.1192 154.406 27.9856 153.756 27.9856Z" fill="white"/>
<path d="M138.284 29.657C137.176 29.657 136.277 28.184 136.277 26.3668C136.277 24.5497 137.176 23.0767 138.284 23.0767C139.392 23.0767 140.291 24.5497 140.291 26.3668C140.291 28.184 139.392 29.657 138.284 29.657Z" fill="#3C1B4E"/>
<path d="M151.365 41.877C151.365 41.877 146.235 45.0745 140.373 41.877" stroke="#3C1B4E" stroke-width="2" stroke-miterlimit="10" stroke-linecap="round"/>
<path d="M145.182 24.8315L141.608 31.0609C141.132 31.8896 141.915 32.7865 143.292 33.0009L145.182 33.2934V24.8364V24.8315Z" fill="#F37260"/>
<path d="M138.862 27.5854C138.211 27.5854 137.684 26.7191 137.684 25.6503C137.684 24.5816 138.211 23.7152 138.862 23.7152C139.512 23.7152 140.039 24.5816 140.039 25.6503C140.039 26.7191 139.512 27.5854 138.862 27.5854Z" fill="white"/>
<path d="M157.308 25.5044C158.045 25.3728 158.798 25.29 159.505 25.0804C159.73 24.978 159.95 24.8561 160.145 24.6612L160.129 24.6124C159.586 24.5003 159.121 24.6466 158.655 24.8708C158.194 25.0511 157.738 25.2461 157.288 25.4557L157.303 25.5044H157.308Z" fill="#F37260"/>
<path d="M157.581 26.1863C158.334 26.3228 159.081 26.5177 159.839 26.5713C160.095 26.5567 160.351 26.5226 160.617 26.4105V26.3618C160.146 26.0644 159.644 26.0352 159.117 26.079C158.61 26.0839 158.098 26.1034 157.586 26.1375V26.1863H157.581Z" fill="#F37260"/>
<path d="M157.34 27.0888C157.99 27.4202 158.63 27.8053 159.311 28.0539C159.552 28.1075 159.803 28.1416 160.079 28.1026L160.1 28.0588C159.757 27.6542 159.301 27.4885 158.794 27.391C158.323 27.2643 157.842 27.1473 157.361 27.04L157.34 27.0839V27.0888Z" fill="#F37260"/>
<path d="M135.633 25.4124C135.305 25.1296 135.003 24.7982 134.634 24.5886C134.542 24.5642 134.199 24.4814 134.117 24.6081C134.215 24.9542 134.45 25.1004 134.773 25.1784C135.044 25.2807 135.326 25.3734 135.607 25.4562L135.633 25.4124Z" fill="#F37260"/>
<path d="M135.464 26.0905C135.054 26.0661 134.629 25.9832 134.235 26.0417C134.148 26.0758 133.861 26.2172 133.877 26.3634C134.163 26.573 134.419 26.5535 134.701 26.4219C134.962 26.3439 135.218 26.2464 135.469 26.1392L135.464 26.0905Z" fill="#F37260"/>
<path d="M135.577 26.9961C135.167 27.1813 134.717 27.3275 134.358 27.581C134.297 27.6493 134.077 27.932 134.169 28.0489C134.553 28.0928 134.788 27.9368 134.993 27.6785C135.208 27.4738 135.408 27.2593 135.607 27.0351L135.577 26.9961Z" fill="#F37260"/>
<path d="M145.182 24.8315L143.293 33.0009L145.182 33.2934H147.158L145.182 24.8315Z" fill="#F9B5A9"/>
<path d="M168.444 28.3068L168.746 21.2634C168.746 21.2634 164.016 21.1951 162.987 10.5447C162.987 10.5447 167.19 7.13267 170.733 8.99466C170.733 8.99466 176.247 14.8049 172.858 21.741L171.516 22.0433C170.615 22.248 169.97 22.9938 169.929 23.876L169.796 26.9663L168.439 28.3068H168.444Z" fill="#E0E0E0"/>
<path d="M165.5 18.9529L165.06 29.189C165.06 29.189 163.509 30.661 161.947 30.7244C161.947 30.7244 163.509 30.4758 163.724 31.475C163.939 32.4743 164.845 43.9631 160.739 46.5221C160.739 46.5221 165.941 43.6755 167.871 39.9564C167.871 39.9564 168.818 29.4766 168.746 21.2633L165.5 18.9529Z" fill="#F9B5A9"/>
<path d="M187.182 156.024L186.926 163.238L186.306 180.591C186.306 180.591 184.202 192.289 170.86 192.289C157.518 192.289 157.16 184.563 157.16 184.563L153.479 184.768C153.479 184.768 151.723 192.289 139.088 192.289C126.452 192.289 124.169 182.18 124.169 182.18L123.201 155.025L187.182 156.029V156.024Z" fill="#414042"/>
<path d="M185.777 160.318C185.777 160.318 173.818 166.733 154.691 166.718C146.663 166.713 123.384 160.318 123.384 160.318H185.777Z" fill="#231F20"/>
<path d="M186.614 171.889L184.024 246.096C184.024 246.096 181.74 251.278 173.666 251.278C165.593 251.278 164.364 246.433 164.364 246.433L155.676 176.408C155.676 176.408 157.632 166.713 170.333 164.544C183.035 162.375 186.619 171.889 186.619 171.889H186.614Z" fill="#414042"/>
<path d="M157.153 184.563C157.153 184.563 159.309 187.107 163.763 187.443L168.232 235.407C168.232 235.407 163.778 238.088 163.778 241.763C163.778 241.763 163.778 245.438 163.778 241.763L157.153 184.563Z" fill="#231F20"/>
<path d="M123.755 172.226L126.346 246.433C126.346 246.433 128.629 251.615 136.703 251.615C144.777 251.615 146.005 246.77 146.005 246.77L153.695 184.792L154.693 176.745C154.693 176.745 152.738 167.05 140.036 164.881C127.334 162.712 123.75 172.226 123.75 172.226H123.755Z" fill="#414042"/>
<path d="M153.701 184.793C153.701 184.793 151.899 187.445 148.566 188.112L143.298 243.397L146.513 242.642L153.701 184.798V184.793Z" fill="#231F20"/>
<path d="M176.583 296.489H176.588C179.277 296.489 181.457 298.564 181.457 301.124V308.981C181.457 311.542 179.277 313.617 176.588 313.617H176.583C173.894 313.617 171.714 311.542 171.714 308.981V301.124C171.714 298.564 173.894 296.489 176.583 296.489Z" fill="#F8A38E"/>
<path d="M176.59 300.08C176.59 300.08 174.475 302.147 174.276 308.103H171.716L171.839 299.958L176.585 300.085L176.59 300.08Z" fill="#F6927F"/>
<path d="M184.172 241.759L182.969 300.914H171.142C171.142 300.914 163.376 264.995 163.78 241.759C163.78 241.759 164.446 234.15 173.968 234.15C184.172 234.15 184.172 241.759 184.172 241.759Z" fill="#414042"/>
<path d="M168.235 235.403L173.969 300.914H171.143C171.143 300.914 162.644 256.124 163.765 240.584C163.765 240.584 165.014 236.948 168.235 235.403Z" fill="#231F20"/>
<path d="M133.315 314.493H133.31C130.621 314.493 128.441 312.418 128.441 309.858V302C128.441 299.44 130.621 297.365 133.31 297.365H133.315C136.004 297.365 138.184 299.44 138.184 302V309.858C138.184 312.418 136.004 314.493 133.315 314.493Z" fill="#F8A38E"/>
<path d="M126.115 242.636L127.318 301.791H139.144C139.144 301.791 146.911 265.872 146.506 242.636C146.506 242.636 145.841 235.027 136.318 235.027C126.115 235.027 126.115 242.636 126.115 242.636Z" fill="#414042"/>
<path d="M143.85 237.552L135.393 301.791H139.145C139.145 301.791 146.866 266.832 146.507 242.636C146.507 242.636 146.036 239.287 143.85 237.552Z" fill="#231F20"/>
<path d="M133.318 301.918C133.318 301.918 131.204 303.984 131.004 309.941H128.444L128.567 301.796L133.313 301.922L133.318 301.918Z" fill="#F6927F"/>
<path d="M171.718 305.929L157.189 314.878C154.091 316.18 154.772 322.005 158.039 322.092L183.34 322.77C185.572 322.829 187.134 319.982 186.325 317.335L181.83 307.689C181.83 307.689 182.449 309.234 179.039 309.234C175.63 309.234 171.723 305.934 171.723 305.934L171.718 305.929Z" fill="#D1D3D4"/>
<path d="M186.389 317.584C186.389 317.584 184.987 321.557 182.483 321.601C179.98 321.644 160.935 321.601 159.312 319.553C157.689 317.506 157.55 314.66 160.402 312.9L157.279 314.616C153.403 316.746 154.182 322.166 158.656 322.225L183.988 322.77C183.988 322.77 187.49 321.386 186.389 317.584Z" fill="#A7A9AC"/>
<path d="M128.502 306.47L104.127 314.123C99.9801 315.425 100.897 321.249 105.264 321.337L139.135 322.015C142.12 322.073 144.214 319.227 143.134 316.58L139.012 306.475C139.012 306.475 137.937 308.479 133.376 308.479C128.814 308.479 128.507 306.475 128.507 306.475L128.502 306.47Z" fill="#D1D3D4"/>
<path d="M143.017 316.829C143.017 316.829 141.169 320.801 137.887 320.845C134.605 320.889 109.58 320.845 107.451 318.798C105.321 316.751 105.326 314.333 109.074 312.573L104.778 313.86C99.3719 315.454 100.821 322.015 106.585 321.469L139.863 322.015C139.863 322.015 144.461 320.631 143.022 316.829H143.017Z" fill="#A7A9AC"/>
<path d="M105.708 69.648L72.8383 71.7493C72.8383 71.7493 68.5906 73.915 68.773 79.8038C68.9554 85.6927 73.5525 86.7591 73.5525 86.7591L104.863 84.856L105.708 69.648Z" fill="#F8A38E"/>
<path d="M102.404 79.0731L69.0297 82.1065C69.0297 82.1065 66.5461 87.2483 73.4769 86.7438C76.249 86.541 103.723 84.8967 103.723 84.8967L102.404 79.0731Z" fill="#F6927F"/>
<path d="M135.342 80.3629C133.099 84.0701 129.701 85.8106 126.4 85.8996L102.766 88.4448L100.418 84.9218L99.9284 69.3171L123.797 67.0689L125.158 66.8945L125.173 66.8916C131.528 66.5248 137.664 72.1964 135.347 80.3619L135.342 80.3629Z" fill="#E9F5F1"/>
<path d="M135.893 77.2197C135.893 77.2197 131.261 72.9593 126.898 70.7083C123.54 68.9787 100.033 72.3191 100.033 72.3191L99.9391 69.3358L125.212 66.9089C125.212 66.9089 135.718 66.6521 135.893 77.2197Z" fill="#C7E5DA"/>
<path d="M153.367 163.209C136.518 163.375 120.299 159.032 120.299 159.032C119.219 149.151 123.365 120.354 123.365 120.354C123.365 120.354 118.2 79.9846 122.06 70.7916C125.92 61.5986 144.423 57.2556 144.423 57.2556C146.071 61.3403 152.128 61.5596 152.128 61.5596H153.187H154.247C154.247 61.5596 160.304 61.3403 161.952 57.2556C161.952 57.2556 185.559 56.8802 189.419 66.0732C193.279 75.2662 191.262 90.869 191.262 90.869C191.262 90.869 192.696 129.215 188.61 162.293C188.61 162.293 170.215 163.38 153.367 163.214" fill="#E9F5F1"/>
<path d="M150.422 94.3636V87.5249H165.023V101.275H157.682V94.3636H150.422Z" fill="#106888"/>
<path d="M150.418 101.276H157.76V108.266H150.418V101.276Z" fill="#8B4593"/>
<path d="M135.901 101.276H143.242V108.266H135.901V101.276Z" fill="#F3CD13"/>
<path fill-rule="evenodd" clip-rule="evenodd" d="M150.424 80.4629H135.899V87.4527H128.716V101.281H135.899V94.4425H143.241V87.4527H150.424V80.4629Z" fill="#189A73"/>
<path d="M147.488 60.3657L119.566 70.2752L127.337 64.6795C127.337 64.6795 137.72 57.8408 144.411 57.2559C144.411 57.2559 145.062 59.2105 147.483 60.3657H147.488Z" fill="#C7E5DA"/>
<path d="M123.358 120.354C126.747 148.923 123.194 157.945 138.025 162.288L120.291 159.027C120.291 159.027 120.45 125.458 123.358 120.349" fill="#C7E5DA"/>
<path d="M36.9732 72.2521C36.9732 72.2521 37.0892 71.0126 34.8266 69.6189C32.5641 68.2252 17.2781 58.026 16.6868 61.1172C16.6868 61.1172 16.3228 61.9243 23.0274 65.7C23.0274 65.7 24.8585 67.3567 21.5796 66.7608C18.3007 66.165 6.64372 63.0083 6.11645 65.0359C5.58918 67.0636 18.6924 68.8384 18.4633 69.9035C18.2342 70.9687 4.18427 67.9819 3.59689 69.7381C3.00951 71.4942 17.7456 73.2233 17.5779 74.2147C17.4128 75.2103 4.86177 72.5292 4.91477 74.9508C4.96777 77.3724 16.8502 76.4953 16.952 77.3365C17.0539 78.1777 8.45152 77.7129 8.44469 79.3037C8.43785 80.8946 24.0529 82.3937 30.9361 78.4793C30.9361 78.4793 34.7678 79.5691 35.4819 78.0191C36.196 76.4691 36.9713 72.2587 36.9713 72.2587L36.9732 72.2521Z" fill="#F8A38E"/>
<path d="M265.501 96.8915C265.501 96.8915 265.432 95.6492 267.744 94.3371C270.055 93.0251 285.714 83.3522 286.191 86.4569C286.191 86.4569 286.525 87.2758 279.681 90.8216C279.681 90.8216 277.788 92.411 281.087 91.9299C284.385 91.4489 296.154 88.6865 296.604 90.7323C297.053 92.7781 283.891 94.1054 284.084 95.1741C284.278 96.2428 298.429 93.7406 298.951 95.5172C299.473 97.2937 284.68 98.5133 284.81 99.5139C284.941 100.515 297.582 98.2645 297.436 100.685C297.29 103.105 285.445 101.823 285.314 102.659C285.184 103.495 293.8 103.326 293.741 104.916C293.683 106.506 278.031 107.471 271.295 103.322C271.295 103.322 267.424 104.283 266.766 102.707C266.109 101.132 265.499 96.901 265.499 96.901L265.501 96.8915Z" fill="#F8A38E"/>
<path d="M272.521 99.9112C273.457 96.2952 271.909 95.136 267.652 93.8267L232.373 83.3403C228.219 82.4074 225.907 85.3281 224.97 88.9441C224.034 92.5601 225.357 96.9406 229.511 97.8735L265.721 103.064C270.233 103.544 271.584 103.527 272.521 99.9112Z" fill="#F8A38E"/>
<path d="M234.589 94.0424C234.589 94.0424 266.529 101.224 267.11 102.239C267.691 103.254 265.731 103.077 265.731 103.077L229.545 97.9013L234.589 94.0424Z" fill="#F6927F"/>
<path d="M232.81 87.7726L271.445 95.0834L232.366 83.3301C232.366 83.3301 230.12 82.4597 227.78 83.9514C227.78 83.9514 225.44 85.4432 227.78 83.9514L232.81 87.7726Z" fill="#F9B5A9"/>
<path d="M29.6323 73.2272C30.1509 69.5183 32.0336 68.9948 36.5024 69.3033L73.3645 72.228C77.5886 72.8545 78.6231 76.4106 78.1019 80.1152C77.5833 83.824 74.6695 87.4278 70.441 86.8037L34.7484 78.6064C30.3659 77.4289 29.1155 76.9294 29.634 73.2205L29.6323 73.2272Z" fill="#F8A38E"/>
<path d="M68.4595 83.2121C68.4595 83.2121 34.6671 76.605 33.7385 77.3471C32.8099 78.0892 34.7004 78.6266 34.7004 78.6266L70.7148 86.8582L68.4621 83.2163L68.4595 83.2121Z" fill="#F6927F"/>
<path d="M203.596 72.3806L234.343 83.7689C234.343 83.7689 237.748 87.0436 235.806 92.5967C233.865 98.1498 229.156 97.8518 229.156 97.8518L199.839 87.0974L203.596 72.3806Z" fill="#F8A38E"/>
<path d="M203.899 82.3216L234.067 95.7641C234.067 95.7641 231.793 98.8024 229.197 97.8511C226.601 96.8998 200.902 87.464 200.902 87.464L203.899 82.3216Z" fill="#F6927F"/>
<path d="M207.142 78.3709L236.389 89.8539L236.474 89.0855C236.43 87.576 235.573 85.0045 234.442 83.8544L234.058 83.6519L207.837 74.2384L207.142 78.3709Z" fill="#F9B5A9"/>
<path d="M175.794 72.0508C176.685 76.2504 179.321 78.9558 182.411 80.072L203.918 89.8792L207.306 87.2942L212.94 72.7393L191.116 63.1389L189.888 62.5505L189.877 62.5411C183.989 60.2043 176.306 63.6271 175.794 72.0508Z" fill="#E9F5F1"/>
<path d="M248.526 22.8245L249.756 23.4141C249.355 23.1879 248.948 22.99 248.526 22.8245Z" fill="white"/>
<path d="M175.804 72.015L177.792 74.0412C180.195 76.49 183.148 78.3861 186.432 79.5919L207.354 87.2787L203.962 89.8678L180.936 79.3567C180.936 79.3567 176.006 76.0333 175.8 72.0119L175.804 72.015Z" fill="#C7E5DA"/>
<path d="M176.678 68.6379C176.678 68.6379 182.043 63.7174 185.454 64.232C188.865 64.7466 212.053 75.0239 212.053 75.0239L212.932 72.7439L189.86 62.5469C189.86 62.5469 180.443 59.3828 176.678 68.6379Z" fill="#F5FBF8"/>
<path d="M280.021 98.2095C269.441 99.0219 197.696 104.059 153.054 104.059C119.008 104.059 76.7713 92.604 25.8308 72.1318" stroke="#FF6464" stroke-width="25" stroke-linecap="round"/>
</svg>
