<svg width="44" height="33" viewBox="0 0 44 33" fill="none" xmlns="http://www.w3.org/2000/svg">
<g opacity="0.1">
<path d="M0.607422 8.12201V15.2609H5.86168H11.1159L11.0017 16.9172C10.6019 21.8668 9.34549 23.7135 6.09013 24.1132L4.98597 24.2465V28.3205V32.3944H5.80457C6.24243 32.3944 7.46081 32.2611 8.50785 32.1089C14.752 31.176 17.4744 28.3776 18.845 21.4671C19.0735 20.2297 19.1687 18.0404 19.2448 10.4445L19.359 0.983063H9.99275H0.607422V8.12201Z" fill="#076787"/>
<path d="M24.6895 8.12201V15.2609H29.7914H34.8743V16.4413C34.8553 18.2307 34.3984 20.5152 33.7892 21.7146C33.0658 23.1423 32.133 23.7896 30.3435 24.0561L28.9728 24.2846V28.3395V32.3944H29.601C30.6291 32.3944 33.3704 32.0137 34.5888 31.7091C37.6918 30.9095 39.9763 29.0629 41.2899 26.3025C42.9842 22.7235 43.2507 20.6865 43.384 9.68305L43.4982 0.983063H34.0938H24.6895V8.12201Z" fill="#076787"/>
</g>
</svg>
