<svg width="44" height="33" viewBox="0 0 44 33" fill="none" xmlns="http://www.w3.org/2000/svg">
<g opacity="0.1">
<path d="M43.498 8.12201V15.2609H38.2438H32.9895L33.1037 16.9172C33.5035 21.8668 34.76 23.7135 38.0153 24.1132L39.1195 24.2465V28.3205V32.3944H38.3009C37.863 32.3944 36.6447 32.2611 35.5976 32.1089C29.3534 31.176 26.6311 28.3776 25.2604 21.4671C25.032 20.2297 24.9368 18.0404 24.8606 10.4445L24.7464 0.983063H34.1127H43.498V8.12201Z" fill="#076787"/>
<path d="M19.416 8.12201V15.2609H14.3141H9.23112V16.4413C9.25016 18.2307 9.70705 20.5152 10.3162 21.7146C11.0397 23.1423 11.9725 23.7896 13.762 24.0561L15.1326 24.2846V28.3395V32.3944H14.5044C13.4764 32.3944 10.7351 32.0137 9.51668 31.7091C6.41362 30.9095 4.12916 29.0629 2.81559 26.3025C1.12128 22.7235 0.854763 20.6865 0.721504 9.68305L0.607281 0.983063H10.0116H19.416V8.12201Z" fill="#076787"/>
</g>
</svg>
