<svg width="25" height="25" viewBox="0 0 25 25" fill="none" xmlns="http://www.w3.org/2000/svg">
<path d="M23.0687 16.8609C21.4287 16.8609 19.842 16.5942 18.362 16.1142C17.8953 15.9542 17.3753 16.0742 17.0153 16.4342L14.922 19.0609C11.1487 17.2609 7.61534 13.8609 5.73534 9.95425L8.33534 7.74091C8.69534 7.36758 8.802 6.84758 8.65534 6.38091C8.162 4.90091 7.90867 3.31425 7.90867 1.67425C7.90867 0.954248 7.30867 0.354248 6.58867 0.354248H1.97534C1.25534 0.354248 0.388672 0.674248 0.388672 1.67425C0.388672 14.0609 10.6953 24.3542 23.0687 24.3542C24.0153 24.3542 24.3887 23.5142 24.3887 22.7809V18.1809C24.3887 17.4609 23.7887 16.8609 23.0687 16.8609Z" fill="white"/>
</svg>
