<svg width="27" height="27" viewBox="0 0 27 27" fill="none" xmlns="http://www.w3.org/2000/svg">
<path d="M12.122 17.6687L19.7595 10.0312L18.2428 8.51449L12.122 14.6353L9.03451 11.5478L7.51784 13.0645L12.122 17.6687ZM6.05534 22.8687C5.45951 22.8687 4.94926 22.6563 4.52459 22.2317C4.09992 21.807 3.88795 21.2971 3.88867 20.702V5.53532C3.88867 4.93949 4.10101 4.42924 4.52567 4.00457C4.95034 3.5799 5.46023 3.36793 6.05534 3.36865H21.222C21.8178 3.36865 22.3281 3.58099 22.7528 4.00565C23.1774 4.43032 23.3894 4.94021 23.3887 5.53532V20.702C23.3887 21.2978 23.1763 21.8081 22.7517 22.2327C22.327 22.6574 21.8171 22.8694 21.222 22.8687H6.05534Z" fill="#82B2C2"/>
</svg>
