<svg width="124" height="21" viewBox="0 0 124 21" fill="none" xmlns="http://www.w3.org/2000/svg">
<path d="M10.7694 0.43811L13.6418 6.66528L20.4517 7.47271L15.4169 12.1287L16.7534 18.8549L10.7694 15.5054L4.78545 18.8549L6.12194 12.1287L1.08714 7.47271L7.89712 6.66528L10.7694 0.43811Z" fill="#FFBF1C"/>
<path d="M36.3837 0.43811L39.256 6.66528L46.066 7.47271L41.0312 12.1287L42.3677 18.8549L36.3837 15.5054L30.3997 18.8549L31.7362 12.1287L26.7014 7.47271L33.5114 6.66528L36.3837 0.43811Z" fill="#FFBF1C"/>
<path d="M61.9999 0.43811L64.8722 6.66528L71.6822 7.47271L66.6474 12.1287L67.9839 18.8549L61.9999 15.5054L56.0159 18.8549L57.3524 12.1287L52.3176 7.47271L59.1276 6.66528L61.9999 0.43811Z" fill="#FFBF1C"/>
<path d="M87.6161 0.43811L90.4884 6.66528L97.2984 7.47271L92.2636 12.1287L93.6001 18.8549L87.6161 15.5054L81.6321 18.8549L82.9686 12.1287L77.9338 7.47271L84.7438 6.66528L87.6161 0.43811Z" fill="#FFBF1C"/>
<path d="M113.232 0.43811L116.105 6.66528L122.915 7.47271L117.88 12.1287L119.216 18.8549L113.232 15.5054L107.248 18.8549L108.585 12.1287L103.55 7.47271L110.36 6.66528L113.232 0.43811Z" fill="#FFBF1C"/>
</svg>
