<svg width="67" height="213" viewBox="0 0 67 213" fill="none" xmlns="http://www.w3.org/2000/svg">
<g style="mix-blend-mode:multiply" opacity="0.3">
<path d="M39.6162 220.933C53.2016 220.933 64.2147 218.119 64.2147 214.647C64.2147 211.176 53.2016 208.362 39.6162 208.362C26.0308 208.362 15.0176 211.176 15.0176 214.647C15.0176 218.119 26.0308 220.933 39.6162 220.933Z" fill="#BDCFD5"/>
</g>
<g style="mix-blend-mode:multiply" opacity="0.4">
<path d="M58.8605 111.95H49.0854L48.8821 110.053C50.6475 100.073 53.6347 90.3494 57.7762 81.1001C61.588 73.2055 66.3654 65.277 66.4332 56.5184C66.4332 49.3523 63.3499 42.3386 64.2308 35.2234L52.6939 55.4173C53.5918 45.998 53.5409 32.4281 53.5409 20.5015C48.3061 28.5824 43.0205 36.7481 39.7678 45.8116C39.2595 47.2008 38.7852 48.7594 38.2939 50.3857C38.2939 49.0191 38.3448 47.6469 38.4464 46.269C38.7513 41.0681 39.3273 35.8671 39.8524 30.6662C42.9188 30.6662 45.4769 28.5655 43.7828 23.6864C42.6816 20.5015 46.4257 19.5867 45.0704 15.5547C44.8162 14.7923 43.2407 13.5895 43.0713 12.7932C41.9701 7.55843 45.4938 2.47607 42.3767 0.934425C40.276 0.0534841 38.3617 2.62855 38.0229 4.91561C37.684 7.20267 37.8365 9.84546 36.0746 11.2855C35.3992 11.6885 34.7588 12.1475 34.1602 12.6577C32.6525 14.3519 34.1602 16.9947 34.0416 19.2648C33.9368 20.2345 33.7033 21.1859 33.3471 22.0939C32.7816 23.4866 32.7564 25.0402 33.2766 26.4504C33.7968 27.8606 34.8248 29.0257 36.1593 29.7175C35.3386 36.3158 34.9143 42.9574 34.8887 49.6064C30.9313 34.1629 24.291 19.5348 15.2708 6.38949C13.8816 21.501 14.3052 25.8888 15.4233 34.6135C16.1179 40.0855 16.6092 45.2017 17.1174 50.03C9.30753 38.7641 2.56495 29.5819 1.76871 29.8361C-0.467522 48.3189 1.76871 58.2634 11.9334 73.4596C14.932 77.949 30.0096 88.3 33.6351 102.819C34.0586 104.428 34.5837 107.901 35.1767 112.018H28.4002C28.1066 112.017 27.816 112.077 27.5465 112.193C27.2771 112.31 27.0346 112.481 26.8343 112.696C26.6339 112.91 26.4801 113.164 26.3822 113.441C26.2844 113.718 26.2447 114.012 26.2657 114.305L33.364 209.938C33.407 210.541 33.6774 211.106 34.1208 211.518C34.5642 211.93 35.1475 212.159 35.7527 212.157H51.4572C52.0642 212.159 52.6494 211.931 53.0956 211.52C53.5417 211.108 53.8158 210.543 53.8628 209.938L60.9442 114.305C60.9748 114.011 60.944 113.714 60.8537 113.432C60.7634 113.151 60.6156 112.891 60.4197 112.67C60.2238 112.448 59.984 112.27 59.7156 112.146C59.4472 112.022 59.1561 111.955 58.8605 111.95Z" fill="#C1B5AA"/>
</g>
<path d="M36.3797 47.5733C39.6324 38.5098 44.8503 30.3441 50.1528 22.2632C50.1528 36.9851 50.1528 54.1973 48.4587 63.0576C46.07 75.4416 42.3091 90.553 34.6855 100.701C27.1806 87.7578 31.5345 60.9738 36.3797 47.5733Z" fill="#8A9636"/>
<path d="M38.2266 93.4674C37.6167 86.8942 36.9899 80.3211 35.9904 73.7987C32.1109 48.2684 26.2661 29.4636 11.883 8.01611C10.4938 23.1276 10.9174 27.5154 12.0355 36.2401C14.8647 58.4331 14.1701 74.8999 31.5009 89.0458C33.3693 90.2858 34.9471 91.9156 36.1258 93.8232C38.5992 98.9055 36.5494 106.156 37.4303 111.476C41.5809 107.85 38.8365 98.9394 38.2266 93.4674Z" fill="#66741F"/>
<path d="M35.4488 14.6232C31.8064 33.0721 29.8412 53.5879 33.2802 72.1385C37.0751 92.4679 44.0041 111.103 41.4121 132.161C41.1749 134.058 44.309 134.448 44.8003 132.619C48.8662 114.915 42.5979 96.8218 38.5321 79.7281C35.8353 69.3662 34.6934 58.6611 35.1438 47.9634C35.7876 36.9347 37.6681 25.9399 37.6003 14.8942C37.6003 13.7422 35.7706 13.4203 35.5334 14.6232H35.4488Z" fill="#66741F"/>
<path d="M36.5149 85.996C27.1973 70.7489 0.108297 30.9541 -1.535 31.4623C-3.77123 49.9452 -1.535 59.8896 8.62971 75.0859C11.6283 79.5753 26.7059 89.9264 30.3314 104.445C31.6528 109.646 34.3125 133.652 35.7525 138.886C43.9351 124.842 42.2749 95.4492 36.5149 85.996Z" fill="#8A9636"/>
<path d="M46.4602 62.0582L60.9109 36.9175C60.03 44.0328 63.1811 51.0464 63.1134 58.2126C63.1134 66.9711 58.2681 74.8996 54.4563 82.7942C49.6959 92.637 44.2917 111.476 44.0376 125.35C36.8545 109.578 37.9557 76.8987 46.4602 62.0582Z" fill="#66741F"/>
<path d="M55.4733 113.644H25.0639C24.7703 113.643 24.4797 113.703 24.2102 113.82C23.9408 113.937 23.6982 114.107 23.4979 114.322C23.2975 114.537 23.1437 114.791 23.0458 115.067C22.948 115.344 22.9083 115.638 22.9293 115.931L30.0276 211.564C30.0706 212.168 30.341 212.733 30.7844 213.145C31.2278 213.557 31.8112 213.785 32.4164 213.783H48.1208C48.7278 213.785 49.313 213.557 49.7592 213.146C50.2053 212.734 50.4794 212.169 50.5264 211.564L57.6079 115.931C57.6289 115.638 57.5892 115.344 57.4914 115.067C57.3936 114.791 57.2396 114.537 57.0392 114.322C56.8389 114.107 56.5964 113.937 56.327 113.82C56.0576 113.703 55.7669 113.643 55.4733 113.644Z" fill="#7B6357"/>
<path d="M30.8909 123.707C36.566 124.61 42.3436 124.667 48.0354 123.876C48.278 123.876 48.5107 123.78 48.6823 123.608C48.8538 123.437 48.9502 123.204 48.9502 122.962C48.9502 122.719 48.8538 122.486 48.6823 122.315C48.5107 122.143 48.278 122.047 48.0354 122.047C42.3436 121.256 36.566 121.313 30.8909 122.216C30.7312 122.265 30.5913 122.364 30.4919 122.498C30.3925 122.632 30.3389 122.795 30.3389 122.962C30.3389 123.129 30.3925 123.291 30.4919 123.425C30.5913 123.56 30.7312 123.658 30.8909 123.707Z" fill="#6D564D"/>
<path d="M32.7878 135.668C38.0226 135.481 43.5285 136.108 48.6956 135.312C48.8919 135.257 49.065 135.14 49.1883 134.978C49.3116 134.816 49.3784 134.618 49.3784 134.414C49.3784 134.21 49.3116 134.012 49.1883 133.85C49.065 133.688 48.8919 133.57 48.6956 133.516C43.6132 132.72 38.0226 133.347 32.7878 133.16C32.4553 133.16 32.1365 133.292 31.9014 133.527C31.6663 133.763 31.5342 134.081 31.5342 134.414C31.5342 134.746 31.6663 135.065 31.9014 135.3C32.1365 135.535 32.4553 135.668 32.7878 135.668Z" fill="#6D564D"/>
<path d="M33.5167 149.221C38.662 150.193 43.9306 150.331 49.1196 149.627C49.3036 149.575 49.4655 149.464 49.5808 149.311C49.6961 149.158 49.7585 148.972 49.7585 148.78C49.7585 148.589 49.6961 148.402 49.5808 148.25C49.4655 148.097 49.3036 147.986 49.1196 147.933C43.9306 147.23 38.662 147.367 33.5167 148.34C33.4206 148.367 33.3359 148.424 33.2756 148.504C33.2153 148.583 33.1826 148.68 33.1826 148.78C33.1826 148.88 33.2153 148.977 33.2756 149.057C33.3359 149.136 33.4206 149.194 33.5167 149.221Z" fill="#6D564D"/>
<path d="M33.6356 162.079L39.3448 162.451C41.0257 162.75 42.7462 162.75 44.4271 162.451C44.6225 162.386 44.7924 162.261 44.9127 162.094C45.0331 161.926 45.0978 161.726 45.0978 161.52C45.0978 161.314 45.0331 161.113 44.9127 160.946C44.7924 160.778 44.6225 160.653 44.4271 160.588C42.7462 160.289 41.0257 160.289 39.3448 160.588L33.6356 160.961C33.4829 160.961 33.3363 161.021 33.2283 161.129C33.1203 161.237 33.0596 161.384 33.0596 161.537C33.0596 161.689 33.1203 161.836 33.2283 161.944C33.3363 162.052 33.4829 162.113 33.6356 162.113V162.079Z" fill="#6D564D"/>
<path d="M35.3295 176.326C39.1734 176.998 43.0957 177.095 46.9681 176.614C47.1278 176.566 47.2677 176.467 47.3671 176.333C47.4665 176.199 47.5202 176.036 47.5202 175.869C47.5202 175.702 47.4665 175.539 47.3671 175.405C47.2677 175.271 47.1278 175.172 46.9681 175.124C43.0957 174.643 39.1734 174.74 35.3295 175.412C35.2082 175.412 35.0919 175.46 35.0061 175.546C34.9203 175.631 34.8721 175.748 34.8721 175.869C34.8721 175.99 34.9203 176.107 35.0061 176.192C35.0919 176.278 35.2082 176.326 35.3295 176.326Z" fill="#6D564D"/>
<path d="M35.5996 190.456C37.4613 190.834 39.3585 191.01 41.258 190.981C43.1724 191.236 45.1168 191.15 47.0011 190.727C47.1852 190.674 47.3471 190.563 47.4624 190.41C47.5777 190.257 47.64 190.071 47.64 189.88C47.64 189.688 47.5777 189.502 47.4624 189.349C47.3471 189.196 47.1852 189.085 47.0011 189.032C45.1168 188.609 43.1724 188.523 41.258 188.778C39.3585 188.749 37.4613 188.925 35.5996 189.304C35.4706 189.335 35.356 189.409 35.274 189.513C35.192 189.618 35.1475 189.747 35.1475 189.88C35.1475 190.012 35.192 190.141 35.274 190.246C35.356 190.35 35.4706 190.424 35.5996 190.456Z" fill="#6D564D"/>
<path d="M29.9591 23.7201C30.3153 22.8121 30.5488 21.8606 30.6536 20.8909C30.8061 18.6208 29.2645 15.978 30.7722 14.2839C31.3708 13.7737 32.0112 13.3146 32.6866 12.9116C34.3807 11.4716 34.3808 8.81186 34.6349 6.54174C34.889 4.27162 36.888 1.67961 38.9887 2.56055C42.1058 4.16996 38.5821 9.25232 39.6833 14.4194C39.8527 15.2156 41.3774 16.4184 41.6824 17.1808C43.0377 21.2128 39.2936 22.1276 40.3948 25.3125C44.2235 36.2904 26.6556 33.3935 29.9591 23.7201Z" fill="#E29D36"/>
<path d="M36.1772 204.364C38.4685 204.84 40.8264 204.903 43.14 204.551C43.2876 204.504 43.4166 204.412 43.5081 204.287C43.5996 204.162 43.6489 204.011 43.6489 203.856C43.6489 203.701 43.5996 203.551 43.5081 203.426C43.4166 203.301 43.2876 203.208 43.14 203.162C40.8264 202.809 38.4685 202.872 36.1772 203.348C36.0424 203.348 35.9131 203.401 35.8177 203.497C35.7224 203.592 35.6689 203.721 35.6689 203.856C35.6689 203.991 35.7224 204.12 35.8177 204.216C35.9131 204.311 36.0424 204.364 36.1772 204.364Z" fill="#6D564D"/>
</svg>
