<svg width="131" height="245" viewBox="0 0 131 245" fill="none" xmlns="http://www.w3.org/2000/svg">
<g style="mix-blend-mode:multiply" opacity="0.3">
<path d="M60.9013 254.879C85.0313 254.879 104.593 250.798 104.593 245.765C104.593 240.731 85.0313 236.65 60.9013 236.65C36.7712 236.65 17.21 240.731 17.21 245.765C17.21 250.798 36.7712 254.879 60.9013 254.879Z" fill="#BDCFD5"/>
</g>
<g style="mix-blend-mode:multiply" opacity="0.4">
<path d="M121.23 135.342C120.383 128.752 120.942 121.399 116.775 116.215C112.353 110.71 103.933 109.913 97.36 112.455C90.7868 114.996 85.6197 120.163 80.7068 125.228C75.4889 130.717 70.0677 136.409 67.0183 143.372L66.8658 143.779C66.6795 141.102 66.4254 138.442 66.0866 135.783C69.0635 130.265 72.4026 124.951 76.0818 119.875C88.7144 100.802 96.8263 79.0964 99.7995 56.4131C88.432 74.9976 75.1501 92.5487 66.3407 112.37C65.3242 114.657 64.3755 116.978 63.5115 119.35C62.4442 113.59 61.2922 107.83 60.3096 102.053C60.3234 99.333 59.906 96.6284 59.0729 94.0395L58.9204 93.0399C61.5264 85.7166 65.951 79.1758 71.7788 74.0319C74.6927 71.5247 77.8946 69.3901 80.7407 66.815C86.1684 61.7341 90.0241 55.2023 91.8499 47.9952C93.6757 40.7881 93.3949 33.2084 91.0409 26.1562L82.5703 43.487C80.896 47.2781 78.8111 50.8741 76.3529 54.2108C73.5746 57.599 70.0338 60.4112 67.0353 63.647C62.7122 68.4197 59.6492 74.1963 58.1242 80.4526C58.3275 71.982 59.6997 63.6978 60.1402 55.3119C68.272 37.7439 84.688 23.8183 88.3642 4.75945C84.2136 10.4009 76.9289 12.9082 72.3379 18.2108C69.6978 21.6213 67.6897 25.477 66.4084 29.5952C64.7143 34.2371 62.0207 39.9124 60.1063 45.6724V44.7915C58.9933 29.8124 56.3074 14.992 52.0931 0.575006C51.8221 -0.272053 50.399 -0.170424 50.5007 0.795223C51.2291 15.5849 56.4301 29.9849 57.4127 44.8423C58.2936 58.3952 53.7195 71.7618 53.6009 85.5011C37.4051 67.7129 43.0635 47.7731 27.4946 28.782C15.6357 19.6507 11.3835 13.6366 0.388672 14.8056C11.3071 23.9466 20.5435 34.926 27.6809 47.248C29.0396 49.3687 30.0412 51.6979 30.6456 54.143C30.9542 56.7795 31.0505 59.4365 30.9336 62.0884C31.5435 81.6385 50.8395 95.7844 56.5826 113.81L56.8028 113.505C57.8531 119.333 58.9882 125.143 59.9708 130.971C59.5811 132.547 59.2254 134.105 58.9035 135.681C57.6697 132.783 56.2785 129.956 54.736 127.21C44.063 108.338 31.6451 90.1938 28.4771 68.831C27.8503 68.3058 27.0371 69.2376 26.783 69.9999C22.6646 81.8509 22.9896 94.7942 27.6978 106.423C31.3571 115.402 37.5068 123.161 44.1477 130.226C46.1734 132.19 47.9693 134.378 49.5011 136.748C52.8894 142.576 57.0061 148.895 57.3618 155.638H51.263C44.9727 155.638 38.94 158.136 34.4921 162.584C30.0442 167.032 27.5454 173.065 27.5454 179.355L40.3021 240.462C40.507 241.558 41.0877 242.549 41.9442 243.263C42.8008 243.977 43.8795 244.371 44.9948 244.375H82.2654C83.3663 244.375 84.4337 243.997 85.2883 243.302C86.1428 242.608 86.7324 241.641 86.9581 240.564L99.7148 179.457C99.7148 173.167 97.216 167.134 92.7681 162.686C88.3201 158.238 82.2875 155.739 75.9972 155.739H72.8122C72.8122 154.74 72.6936 153.74 72.592 152.741C72.1116 150.126 72.2041 147.438 72.863 144.863C73.9811 141.729 76.895 139.645 79.6395 137.748L93.5482 128.125C95.1023 126.876 96.9129 125.985 98.8508 125.516C102.408 124.957 105.864 127.329 107.864 130.311C109.63 133.451 111.034 136.781 112.048 140.238C115.063 148.2 121.637 156.01 130.158 155.993C125.327 150.069 122.236 142.92 121.23 135.342Z" fill="#C1B5AA"/>
</g>
<path d="M63.6302 145.066C66.6118 138.036 71.9822 132.344 77.3017 126.855C82.2146 121.772 87.3648 116.69 93.9549 114.081C100.545 111.472 108.948 112.387 113.369 117.842C117.537 123.026 116.978 130.378 117.825 136.969C118.813 144.547 121.886 151.702 126.702 157.637C118.232 157.637 111.608 149.844 108.592 141.882C107.578 138.425 106.174 135.094 104.408 131.954C102.409 128.972 98.9525 126.601 95.3949 127.16C93.4765 127.653 91.6897 128.561 90.1601 129.819L76.2514 139.357C73.5069 141.255 70.593 143.338 69.4749 146.473C68.816 149.048 68.7235 151.736 69.2038 154.35C69.9822 162.607 69.2823 170.937 67.137 178.949C55.8034 174.121 60.2419 153.385 63.6302 145.066Z" fill="#8A9636"/>
<path d="M60.3601 143.711C62.698 135.562 68.0683 128.701 72.761 121.687C85.3936 102.614 93.5055 80.9088 96.4787 58.2256C85.0434 76.6915 71.7615 94.2426 62.9521 114.064C54.1427 133.885 50.1615 157.196 58.2424 177.373C57.209 167.971 57.7511 152.808 60.3601 143.711Z" fill="#8A9636"/>
<path d="M51.3134 128.786C40.6743 110.032 28.2564 91.8877 25.0884 70.5249C24.4616 69.9997 23.6484 70.9315 23.3943 71.6938C19.2758 83.5448 19.6009 96.4881 24.3091 108.117C27.9684 117.096 34.1181 124.855 40.759 131.92C42.7846 133.884 44.5806 136.072 46.1124 138.442C49.5007 144.27 53.6174 150.589 53.9731 157.331C54.312 163.6 59.8178 172.968 64.5444 177.339C64.1717 167.649 61.1392 146.133 51.3134 128.786Z" fill="#8A9636"/>
<path d="M60.7841 175.696C68.9667 147.404 58.3615 119.79 55.1597 91.6C53.4655 76.3529 58.0058 61.6649 56.7183 46.5195C55.6052 31.5404 52.9194 16.72 48.7051 2.30302C48.434 1.45596 47.011 1.55762 47.1126 2.52327C47.8411 17.3129 53.042 31.7129 54.0246 46.5703C54.9733 61.0889 49.6368 75.3703 50.2637 90.1938C51.4496 118.536 63.3253 146.337 57.4806 174.9C57.3593 175.349 57.4214 175.828 57.6534 176.232C57.8853 176.635 58.268 176.93 58.7173 177.051C59.1666 177.173 59.6457 177.11 60.0492 176.878C60.4527 176.647 60.7475 176.264 60.8688 175.815L60.7841 175.696Z" fill="#8A9636"/>
<path d="M63.6292 65.443C66.6278 62.2072 70.1685 59.4627 72.9468 56.0067C75.405 52.6701 77.4899 49.0741 79.1642 45.283L87.6348 27.9521C89.9888 35.0044 90.2696 42.5841 88.4438 49.7912C86.618 56.9983 82.7623 63.5301 77.3346 68.611C74.4885 71.186 71.2866 73.3206 68.3727 75.8279C59.7158 83.299 54.8198 93.5992 52.7699 104.628C52.4141 90.5837 53.7864 76.1159 63.6292 65.443Z" fill="#8A9636"/>
<path d="M51.5337 88.5503C33.6946 70.4063 40.0984 49.9244 24.1059 30.4251C12.2471 21.2938 7.99482 15.2797 -3 16.4487C7.91844 25.5897 17.1549 36.5691 24.2922 48.891C25.651 51.0118 26.6525 53.341 27.2569 55.7861C27.5655 58.4226 27.6618 61.0796 27.5449 63.7315C28.1548 83.2816 47.4508 97.4275 53.1939 115.453C59.2588 107.931 57.4292 94.5475 51.5337 88.5503Z" fill="#8A9636"/>
<path d="M63.0713 31.323C64.3525 27.2048 66.3606 23.3492 69.0007 19.9386C73.5917 14.636 80.8595 12.1287 85.027 6.4873C80.995 27.4097 61.5974 42.0638 54.6684 62.2407C53.1776 52.6012 59.8016 40.0308 63.0713 31.323Z" fill="#8A9636"/>
<path d="M72.609 157.366H47.8749C41.5846 157.366 35.5519 159.865 31.104 164.312C26.656 168.76 24.1572 174.793 24.1572 181.083L36.9139 242.19C37.1258 243.28 37.7095 244.263 38.5654 244.97C39.4212 245.678 40.4962 246.067 41.6066 246.07H78.8772C79.9782 246.07 81.0456 245.691 81.9001 244.997C82.7547 244.303 83.3443 243.335 83.5699 242.258L96.3266 181.151C96.3356 178.031 95.7287 174.939 94.5407 172.054C93.3528 169.169 91.6072 166.546 89.4039 164.336C87.2006 162.127 84.583 160.374 81.701 159.178C78.819 157.981 75.7293 157.366 72.609 157.366Z" fill="#7B6357"/>
<path d="M38.2179 166.311C53.1261 166.666 68.712 167.767 83.5355 166.311C83.6838 166.311 83.826 166.252 83.9308 166.147C84.0357 166.042 84.0946 165.9 84.0946 165.751C84.0946 165.603 84.0357 165.461 83.9308 165.356C83.826 165.251 83.6838 165.192 83.5355 165.192C68.695 163.803 53.0414 164.904 38.2179 165.192C38.0876 165.192 37.9626 165.244 37.8705 165.336C37.7783 165.428 37.7266 165.553 37.7266 165.684C37.7266 165.814 37.7783 165.939 37.8705 166.031C37.9626 166.123 38.0876 166.175 38.2179 166.175V166.311Z" fill="#6D564D"/>
<path d="M33.5586 190.807C51.4993 191.367 69.8466 192.231 87.7704 190.926C87.9051 190.926 88.0344 190.873 88.1297 190.777C88.225 190.682 88.2786 190.553 88.2786 190.418C88.2786 190.283 88.225 190.154 88.1297 190.058C88.0344 189.963 87.9051 189.91 87.7704 189.91C69.8466 188.605 51.4993 189.469 33.5586 190.028C33.4553 190.028 33.3561 190.069 33.2831 190.142C33.21 190.215 33.1689 190.314 33.1689 190.418C33.1689 190.521 33.21 190.62 33.2831 190.693C33.3561 190.766 33.4553 190.807 33.5586 190.807Z" fill="#6D564D"/>
<path d="M39.9121 203.531C52.3978 203.852 65.1376 204.479 77.6063 203.531C77.7366 203.531 77.8615 203.479 77.9537 203.387C78.0458 203.294 78.0976 203.17 78.0976 203.039C78.0976 202.909 78.0458 202.784 77.9537 202.692C77.8615 202.6 77.7366 202.548 77.6063 202.548C65.1376 201.65 52.4147 202.277 39.9121 202.548C39.7953 202.548 39.6833 202.594 39.6007 202.677C39.5181 202.76 39.4717 202.872 39.4717 202.988C39.4717 203.105 39.5181 203.217 39.6007 203.3C39.6833 203.382 39.7953 203.429 39.9121 203.429V203.531Z" fill="#6D564D"/>
<path d="M40.7585 215.847C53.7315 216.736 66.7502 216.736 79.7232 215.847C79.8266 215.847 79.9257 215.806 79.9988 215.733C80.0718 215.66 80.1129 215.56 80.1129 215.457C80.1129 215.354 80.0718 215.255 79.9988 215.182C79.9257 215.108 79.8266 215.067 79.7232 215.067C66.7502 214.178 53.7315 214.178 40.7585 215.067C40.6327 215.067 40.5121 215.117 40.4231 215.206C40.3342 215.295 40.2842 215.416 40.2842 215.542C40.2842 215.668 40.3342 215.788 40.4231 215.877C40.5121 215.966 40.6327 216.016 40.7585 216.016V215.847Z" fill="#6D564D"/>
<path d="M42.8772 226.689C55.1464 227.423 67.4456 227.513 79.7243 226.96C79.877 226.96 80.0235 226.899 80.1316 226.791C80.2396 226.683 80.3003 226.537 80.3003 226.384C80.3003 226.231 80.2396 226.085 80.1316 225.977C80.0235 225.869 79.877 225.808 79.7243 225.808C67.4456 225.255 55.1464 225.345 42.8772 226.079C42.7963 226.079 42.7188 226.111 42.6616 226.168C42.6044 226.226 42.5723 226.303 42.5723 226.384C42.5723 226.465 42.6044 226.542 42.6616 226.6C42.7188 226.657 42.7963 226.689 42.8772 226.689Z" fill="#6D564D"/>
<path d="M42.4538 237.769C52.8727 238.853 63.376 238.853 73.7949 237.769C73.9163 237.769 74.0326 237.72 74.1184 237.635C74.2042 237.549 74.2523 237.432 74.2523 237.311C74.2523 237.19 74.2042 237.073 74.1184 236.988C74.0326 236.902 73.9163 236.854 73.7949 236.854C63.376 235.769 52.8727 235.769 42.4538 236.854C42.3549 236.854 42.2601 236.893 42.1902 236.963C42.1203 237.033 42.0811 237.128 42.0811 237.226C42.0811 237.325 42.1203 237.42 42.1902 237.49C42.2601 237.56 42.3549 237.599 42.4538 237.599V237.769Z" fill="#6D564D"/>
<path d="M32.2877 177.898C41.5376 178.339 50.7705 178.373 60.0373 178.39C69.3041 178.407 78.6726 179.304 87.77 178.186C87.9048 178.186 88.0341 178.133 88.1294 178.037C88.2247 177.942 88.2783 177.813 88.2783 177.678C88.2783 177.543 88.2247 177.414 88.1294 177.319C88.0341 177.223 87.9048 177.17 87.77 177.17C78.7234 176.052 69.1347 176.933 60.0373 176.967C50.9399 177 41.5376 176.967 32.2877 177.475C32.2417 177.488 32.2012 177.516 32.1723 177.554C32.1435 177.592 32.1279 177.639 32.1279 177.687C32.1279 177.734 32.1435 177.781 32.1723 177.819C32.2012 177.857 32.2417 177.885 32.2877 177.898Z" fill="#6D564D"/>
</svg>
