<svg width="576" height="85" viewBox="0 0 576 85" fill="none" xmlns="http://www.w3.org/2000/svg">
<g style="mix-blend-mode:multiply" opacity="0.3">
<path d="M575.418 84.6244L568.879 79L565.44 76.0352L545.059 58.4673L542.959 56.6715L527.983 43.7792L522.714 39.239L510.72 28.9049L508.653 27.1261L491.288 12.167L488.001 9.33784L477.854 0.596191H98.0156L92.2725 5.54299L84.5473 12.2178L67.3012 27.1261L65.2344 28.9049L53.2739 39.2221L48.0052 43.7792L31.6061 57.9251L30.9624 58.4842L13.2758 73.7651L7.21084 79L0.688477 84.6244H575.418Z" fill="#C1B5AA"/>
</g>
<path d="M566.947 81.2363H-7.78223L89.5449 -2.79199H469.383L566.947 81.2363Z" fill="white"/>
<path d="M87.174 7.59299C91.5777 7.48675 95.9716 8.05812 100.202 9.28711C109.669 11.8622 119.653 11.8622 129.12 9.28711C137.644 6.96014 146.635 6.96014 155.159 9.28711C164.621 11.8624 174.599 11.8624 184.061 9.28711C192.59 6.96037 201.587 6.96037 210.116 9.28711C219.584 11.8622 229.567 11.8622 239.035 9.28711C247.564 6.96037 256.561 6.96037 265.09 9.28711C274.552 11.8624 284.53 11.8624 293.992 9.28711C302.521 6.96037 311.518 6.96037 320.047 9.28711C329.515 11.8622 339.498 11.8622 348.966 9.28711C357.495 6.96037 366.492 6.96037 375.021 9.28711C384.489 11.8622 394.473 11.8622 403.94 9.28711C412.469 6.96037 421.466 6.96037 429.996 9.28711C439.457 11.8624 449.435 11.8624 458.897 9.28711C463.127 8.05812 467.521 7.48675 471.925 7.59299C475.586 7.51639 479.242 7.91498 482.801 8.77884L475.11 2.15483C474.127 2.15483 473.094 2.07015 471.925 2.07015C467.038 1.9777 462.165 2.62893 457.474 4.00147C448.945 6.32821 439.948 6.32821 431.419 4.00147C421.957 1.42619 411.979 1.42619 402.517 4.00147C393.982 6.32799 384.98 6.32799 376.445 4.00147C366.983 1.42619 357.005 1.42619 347.543 4.00147C339.008 6.32799 330.006 6.32799 321.47 4.00147C312.009 1.42619 302.031 1.42619 292.569 4.00147C284.039 6.32821 275.043 6.32821 266.513 4.00147C257.046 1.4264 247.062 1.4264 237.595 4.00147C229.065 6.32821 220.068 6.32821 211.539 4.00147C202.077 1.42619 192.099 1.42619 182.637 4.00147C174.108 6.32821 165.111 6.32821 156.582 4.00147C147.12 1.42619 137.142 1.42619 127.68 4.00147C119.151 6.32821 110.154 6.32821 101.625 4.00147C96.9336 2.62893 92.0609 1.9777 87.174 2.07015C85.9542 2.07015 84.853 2.07013 83.7857 2.15483L76.0605 8.82966C79.6951 7.93351 83.4314 7.51776 87.174 7.59299Z" fill="#82B2C2"/>
<path d="M59.6953 25.5842C64.4215 25.6734 69.134 25.045 73.6718 23.7207C82.511 21.3039 91.8368 21.3039 100.676 23.7207C109.834 26.205 119.488 26.205 128.646 23.7207C137.479 21.3037 146.8 21.3037 155.633 23.7207C164.785 26.2052 174.434 26.2052 183.586 23.7207C192.425 21.3039 201.751 21.3039 210.59 23.7207C219.748 26.205 229.402 26.205 238.56 23.7207C247.399 21.3039 256.725 21.3039 265.565 23.7207C274.717 26.2052 284.365 26.2052 293.517 23.7207C302.357 21.3039 311.682 21.3039 320.522 23.7207C329.68 26.205 339.334 26.205 348.492 23.7207C357.331 21.3039 366.657 21.3039 375.496 23.7207C384.654 26.205 394.308 26.205 403.466 23.7207C412.305 21.3039 421.631 21.3039 430.47 23.7207C439.622 26.2052 449.271 26.2052 458.423 23.7207C467.268 21.3033 476.599 21.3033 485.444 23.7207C489.982 25.045 494.694 25.6734 499.421 25.5842C500.437 25.5842 501.369 25.5842 502.25 25.5842L500.183 23.8054H499.421C494.837 23.9073 490.266 23.3016 485.868 22.0096C476.713 19.5022 467.052 19.5022 457.898 22.0096C449.056 24.4042 439.736 24.4042 430.893 22.0096C421.745 19.502 412.089 19.502 402.94 22.0096C394.066 24.4193 384.709 24.4193 375.835 22.0096C366.686 19.502 357.031 19.502 347.882 22.0096C339.034 24.404 329.708 24.404 320.86 22.0096C311.712 19.502 302.056 19.502 292.908 22.0096C284.065 24.4042 274.745 24.4042 265.903 22.0096C256.754 19.502 247.099 19.502 237.95 22.0096C229.102 24.404 219.777 24.404 210.929 22.0096C201.78 19.502 192.125 19.502 182.976 22.0096C174.134 24.4042 164.814 24.4042 155.972 22.0096C146.823 19.502 137.168 19.502 128.019 22.0096C119.177 24.4042 109.857 24.4042 101.015 22.0096C91.8659 19.502 82.2108 19.502 73.0619 22.0096C68.6638 23.3029 64.0922 23.9087 59.509 23.8054H58.645L56.5781 25.5842C57.6793 25.5503 58.7127 25.5842 59.6953 25.5842Z" fill="#82B2C2"/>
<path d="M59.6942 43.5758C64.5812 43.6683 69.4538 43.0171 74.145 41.6446C82.6743 39.3178 91.6712 39.3178 100.201 41.6446C109.668 44.2196 119.652 44.2196 129.119 41.6446C137.643 39.3176 146.634 39.3176 155.158 41.6446C164.619 44.2198 174.598 44.2198 184.059 41.6446C192.589 39.3178 201.586 39.3178 210.115 41.6446C219.582 44.2196 229.566 44.2196 239.033 41.6446C247.563 39.3178 256.56 39.3178 265.089 41.6446C274.551 44.2198 284.529 44.2198 293.991 41.6446C302.52 39.3178 311.517 39.3178 320.046 41.6446C329.514 44.2196 339.497 44.2196 348.965 41.6446C357.494 39.3178 366.491 39.3178 375.02 41.6446C384.488 44.2196 394.471 44.2196 403.939 41.6446C412.468 39.3178 421.465 39.3178 429.994 41.6446C439.456 44.2198 449.434 44.2198 458.896 41.6446C467.431 39.318 476.433 39.318 484.969 41.6446C494.43 44.2198 504.408 44.2198 513.87 41.6446C515.729 41.1112 517.619 40.6925 519.529 40.3909L514.243 35.8507L512.447 36.325C503.918 38.6518 494.921 38.6518 486.392 36.325C476.924 33.7499 466.941 33.7499 457.473 36.325C448.944 38.6518 439.947 38.6518 431.417 36.325C421.956 33.7497 411.978 33.7497 402.516 36.325C393.981 38.6515 384.978 38.6515 376.443 36.325C366.982 33.7497 357.003 33.7497 347.542 36.325C339.007 38.6515 330.004 38.6515 321.469 36.325C312.007 33.7497 302.029 33.7497 292.568 36.325C284.038 38.6518 275.041 38.6518 266.512 36.325C257.045 33.7499 247.061 33.7499 237.593 36.325C229.064 38.6518 220.067 38.6518 211.538 36.325C202.076 33.7497 192.098 33.7497 182.636 36.325C174.107 38.6518 165.11 38.6518 156.581 36.325C147.119 33.7497 137.141 33.7497 127.679 36.325C119.15 38.6518 110.153 38.6518 101.624 36.325C92.1618 33.7497 82.1837 33.7497 72.7219 36.325C64.1926 38.6518 55.1958 38.6518 46.6665 36.325C46.0566 36.1556 45.4467 35.9862 44.8029 35.8337L39.5342 40.3909C41.4612 40.691 43.3679 41.1097 45.2433 41.6446C49.9348 43.0158 54.8073 43.667 59.6942 43.5758Z" fill="#82B2C2"/>
<path d="M45.7176 56.0279C54.8696 58.5124 64.5185 58.5124 73.6705 56.0279C82.5097 53.6111 91.8356 53.6111 100.675 56.0279C109.833 58.5122 119.487 58.5122 128.645 56.0279C137.478 53.6109 146.799 53.6109 155.632 56.0279C164.784 58.5124 174.433 58.5124 183.585 56.0279C192.424 53.6111 201.75 53.6111 210.589 56.0279C219.747 58.5122 229.401 58.5122 238.559 56.0279C247.398 53.6111 256.724 53.6111 265.563 56.0279C274.715 58.5124 284.364 58.5124 293.516 56.0279C302.355 53.6111 311.681 53.6111 320.52 56.0279C329.678 58.5122 339.333 58.5122 348.49 56.0279C357.33 53.6111 366.655 53.6111 375.495 56.0279C384.652 58.5122 394.307 58.5122 403.464 56.0279C412.304 53.6111 421.63 53.6111 430.469 56.0279C439.621 58.5124 449.27 58.5124 458.422 56.0279C467.267 53.6105 476.598 53.6105 485.443 56.0279C494.595 58.5124 504.244 58.5124 513.396 56.0279C517.793 54.7291 522.365 54.1176 526.949 54.2152C530.194 54.1696 533.436 54.4592 536.622 55.0792L533.945 52.7921C531.625 52.5027 529.287 52.3669 526.949 52.3855C522.217 52.2981 517.499 52.9263 512.955 54.249C504.116 56.6658 494.79 56.6658 485.951 54.249C476.793 51.7647 467.139 51.7647 457.981 54.249C449.142 56.6658 439.816 56.6658 430.977 54.249C421.825 51.7645 412.176 51.7645 403.024 54.249C394.152 56.6818 384.79 56.6818 375.918 54.249C366.766 51.7645 357.117 51.7645 347.965 54.249C339.12 56.6664 329.789 56.6664 320.944 54.249C311.792 51.7645 302.143 51.7645 292.991 54.249C284.152 56.6658 274.826 56.6658 265.987 54.249C256.835 51.7645 247.186 51.7645 238.034 54.249C229.189 56.6664 219.858 56.6664 211.013 54.249C201.861 51.7645 192.212 51.7645 183.06 54.249C174.221 56.6658 164.895 56.6658 156.055 54.249C146.903 51.7645 137.255 51.7645 128.103 54.249C119.263 56.6658 109.938 56.6658 101.098 54.249C91.9463 51.7645 82.2974 51.7645 73.1454 54.249C64.3062 56.6658 54.9803 56.6658 46.1411 54.249C41.6031 52.9259 36.8908 52.2977 32.1646 52.3855C29.8091 52.366 27.4549 52.5018 25.1172 52.7921L22.4404 55.0961C25.6414 54.4582 28.9012 54.1629 32.1646 54.2152C36.7487 54.1171 41.3204 54.7286 45.7176 56.0279Z" fill="#F2E8DD"/>
<path d="M554.342 70.377C549.955 70.4813 545.578 69.9099 541.365 68.6829C531.898 66.1079 521.914 66.1079 512.447 68.6829C503.917 71.0097 494.92 71.0097 486.391 68.6829C476.923 66.1079 466.94 66.1079 457.472 68.6829C448.943 71.0097 439.946 71.0097 431.417 68.6829C421.955 66.1076 411.977 66.1076 402.515 68.6829C393.98 71.0094 384.978 71.0094 376.443 68.6829C366.981 66.1076 357.003 66.1076 347.541 68.6829C339.006 71.0094 330.004 71.0094 321.469 68.6829C312.007 66.1076 302.029 66.1076 292.567 68.6829C284.038 71.0097 275.041 71.0097 266.512 68.6829C257.044 66.1079 247.06 66.1079 237.593 68.6829C229.064 71.0097 220.067 71.0097 211.537 68.6829C202.076 66.1076 192.097 66.1076 182.636 68.6829C174.106 71.0097 165.11 71.0097 156.58 68.6829C147.118 66.1076 137.14 66.1076 127.679 68.6829C119.149 71.0097 110.152 71.0097 101.623 68.6829C92.1612 66.1076 82.1831 66.1076 72.7213 68.6829C64.192 71.0097 55.1952 71.0097 46.6659 68.6829C37.2041 66.1076 27.2259 66.1076 17.7642 68.6829C13.5569 69.9103 9.18557 70.4817 4.80418 70.377L-1.26074 75.6119C0.732254 75.8079 2.73384 75.904 4.73645 75.8998C9.62336 75.991 14.4958 75.3398 19.1873 73.9686C27.7166 71.6418 36.7134 71.6418 45.2428 73.9686C54.7045 76.5438 64.6826 76.5438 74.1444 73.9686C82.6737 71.6418 91.6706 71.6418 100.2 73.9686C109.667 76.5436 119.651 76.5436 129.119 73.9686C137.642 71.6416 146.634 71.6416 155.157 73.9686C164.619 76.5438 174.597 76.5438 184.059 73.9686C192.588 71.6418 201.585 71.6418 210.114 73.9686C219.582 76.5436 229.565 76.5436 239.033 73.9686C247.562 71.6418 256.559 71.6418 265.088 73.9686C274.55 76.5438 284.528 76.5438 293.99 73.9686C302.519 71.6418 311.516 71.6418 320.046 73.9686C329.513 76.5436 339.497 76.5436 348.964 73.9686C357.494 71.6418 366.49 71.6418 375.02 73.9686C384.487 76.5436 394.471 76.5436 403.938 73.9686C412.468 71.6418 421.464 71.6418 429.994 73.9686C439.456 76.5438 449.434 76.5438 458.895 73.9686C467.431 71.642 476.433 71.642 484.968 73.9686C494.43 76.5438 504.408 76.5438 513.87 73.9686C522.405 71.642 531.407 71.642 539.942 73.9686C544.639 75.3395 549.517 75.9906 554.41 75.8998C556.412 75.904 558.414 75.8079 560.407 75.6119L554.342 70.377Z" fill="#F2E8DD"/>
</svg>
