<svg width="229" height="56" viewBox="0 0 229 56" fill="none" xmlns="http://www.w3.org/2000/svg">
<path d="M228.5 49.8339L228.5 45.3276L226.4 49.1896L224.299 45.3276L224.299 49.8339M219.482 45.3257L222.284 45.3257M220.882 45.3257L220.882 49.832" stroke="white" stroke-miterlimit="10" stroke-linecap="round" stroke-linejoin="round"/>
<path d="M164.022 49.9841V22.1836H172.439V24.7382C173.09 23.6362 175.445 21.4322 179.653 21.4322C183.862 21.4322 186.316 23.8366 187.018 25.0387C189.272 21.7327 193.08 21.3821 195.284 21.4322C203.25 21.4322 205.655 28.6453 205.655 32.7027V49.9841H197.238V33.1535C197.238 32.1016 196.697 29.0961 193.33 29.0961C189.964 29.0961 188.972 32.1016 188.972 33.7546V49.9841H180.555V33.1535C180.555 31.1999 179.743 29.0961 176.497 29.0961C173.251 29.0961 172.439 32.1016 172.439 33.7546V49.9841H164.022Z" fill="white"/>
<path d="M28.0043 28.3447V14.8201H0.5V42.0195H14.3273V28.3447H28.0043Z" fill="white"/>
<rect x="14.1768" y="42.0195" width="13.8273" height="13.8251" fill="white"/>
<rect x="41.5312" y="42.0195" width="13.8273" height="13.8251" fill="white"/>
<path fill-rule="evenodd" clip-rule="evenodd" d="M28.0039 0.844727H55.3579V14.6699H68.8846L68.8846 28.1945L68.8846 28.495L68.8846 42.0196H55.3579V28.495H41.5306V14.6699H28.0039V0.844727Z" fill="white"/>
<path d="M91.5799 26.0907L84.3657 11.2136H74.1455L87.2213 34.9568V49.8338H96.0888V34.9568L109.165 11.2136H98.9445L91.5799 26.0907Z" fill="white"/>
<path d="M132.911 36.0088C132.911 44.1421 126.317 50.7355 118.182 50.7355C110.048 50.7355 103.453 44.1421 103.453 36.0088C103.453 27.8754 110.048 21.282 118.182 21.282C126.317 21.282 132.911 27.8754 132.911 36.0088ZM111.618 36.0088C111.618 39.6336 114.557 42.5722 118.182 42.5722C121.808 42.5722 124.495 39.6336 124.495 36.0088C124.495 32.3839 121.808 29.4453 118.182 29.4453C114.557 29.4453 111.618 32.3839 111.618 36.0088Z" fill="white"/>
<path d="M162.67 36.0088C162.67 44.1421 156.076 50.7355 147.941 50.7355C139.806 50.7355 133.212 44.1421 133.212 36.0088C133.212 27.8754 139.806 21.282 147.941 21.282C156.076 21.282 162.67 27.8754 162.67 36.0088ZM141.377 36.0088C141.377 39.6336 144.316 42.5722 147.941 42.5722C151.566 42.5722 154.253 39.6336 154.253 36.0088C154.253 32.3839 151.566 29.4453 147.941 29.4453C144.316 29.4453 141.377 32.3839 141.377 36.0088Z" fill="white"/>
<rect x="208.36" y="22.1836" width="8.41661" height="27.6503" fill="white"/>
<ellipse cx="212.719" cy="14.8201" rx="4.95979" ry="4.95902" fill="white"/>
</svg>
