<svg width="193" height="50" viewBox="0 0 193 50" fill="none" xmlns="http://www.w3.org/2000/svg">
<path d="M145.193 43.9786V20.2504H152.729V22.4308C153.313 21.4902 155.421 19.6091 159.189 19.6091C162.957 19.6091 165.155 21.6612 165.783 22.6873C167.802 19.8656 171.211 19.5663 173.184 19.6091C180.317 19.6091 182.47 25.7656 182.47 29.2286V43.9786H174.934V29.6134C174.934 28.7156 174.449 26.1504 171.435 26.1504C168.421 26.1504 167.532 28.7156 167.532 30.1264V43.9786H159.996V29.6134C159.996 27.946 159.27 26.1504 156.363 26.1504C153.456 26.1504 152.729 28.7156 152.729 30.1264V43.9786H145.193Z" fill="white"/>
<path d="M24.7618 25.2755V13.8691H0.388672V36.8086H12.6418V25.2755H24.7618Z" fill="white"/>
<rect x="11.8594" y="36.8105" width="12.9034" height="12.9034" fill="white"/>
<rect x="36.2324" y="36.8105" width="12.9034" height="12.9034" fill="white"/>
<path fill-rule="evenodd" clip-rule="evenodd" d="M24.7617 0.966797H49.0017V13.22H24.7617V0.966797ZM60.988 25.207H60.9887V37.4602H49.002V25.4739H36.748V13.2207H60.988V25.207Z" fill="white"/>
<path d="M81.3292 22.8232L75.1267 9.56836H66.3398L77.5819 30.7226V43.9775H85.2058V30.7226L96.4478 9.56836H87.661L81.3292 22.8232Z" fill="white"/>
<path d="M117.953 32.5089C117.953 39.6353 112.176 45.4123 105.05 45.4123C97.9235 45.4123 92.1465 39.6353 92.1465 32.5089C92.1465 25.3825 97.9235 19.6055 105.05 19.6055C112.176 19.6055 117.953 25.3825 117.953 32.5089ZM99.2991 32.5089C99.2991 35.685 101.874 38.2597 105.05 38.2597C108.226 38.2597 110.58 35.685 110.58 32.5089C110.58 29.3328 108.226 26.7581 105.05 26.7581C101.874 26.7581 99.2991 29.3328 99.2991 32.5089Z" fill="white"/>
<path d="M143.76 32.5089C143.76 39.6353 137.983 45.4123 130.857 45.4123C123.73 45.4123 117.953 39.6353 117.953 32.5089C117.953 25.3825 123.73 19.6055 130.857 19.6055C137.983 19.6055 143.76 25.3825 143.76 32.5089ZM125.106 32.5089C125.106 35.685 127.68 38.2597 130.857 38.2597C134.033 38.2597 136.387 35.685 136.387 32.5089C136.387 29.3328 134.033 26.7581 130.857 26.7581C127.68 26.7581 125.106 29.3328 125.106 32.5089Z" fill="white"/>
<rect x="183.904" y="19.6055" width="8.60228" height="24.3731" fill="white"/>
<circle cx="188.205" cy="13.8695" r="4.30114" fill="white"/>
</svg>
