<svg width="119" height="31" viewBox="0 0 119 31" fill="none" xmlns="http://www.w3.org/2000/svg">
<path d="M89.7686 26.5752V11.9721H94.4065V13.314C94.7654 12.7351 96.0629 11.5774 98.3818 11.5774C100.701 11.5774 102.054 12.8404 102.44 13.4719C103.682 11.7353 105.78 11.5511 106.995 11.5774C111.385 11.5774 112.71 15.3663 112.71 17.4976V26.5752H108.072V17.7344C108.072 17.1818 107.774 15.6031 105.918 15.6031C104.063 15.6031 103.517 17.1818 103.517 18.0501V26.5752H98.8788V17.7344C98.8788 16.7082 98.4315 15.6031 96.6426 15.6031C94.8537 15.6031 94.4065 17.1818 94.4065 18.0501V26.5752H89.7686Z" fill="#076787"/>
<path d="M15.6514 15.0652V8.04541H0.651367V22.163H8.19234V15.0652H15.6514Z" fill="#076787"/>
<rect x="7.71094" y="22.1631" width="7.94117" height="7.94117" fill="#076787"/>
<rect x="22.7109" y="22.1631" width="7.94117" height="7.94117" fill="#076787"/>
<path fill-rule="evenodd" clip-rule="evenodd" d="M15.6514 0.104492H30.5694V7.64547H15.6514V0.104492ZM37.9461 15.0227H37.9466V22.5637H30.5696V15.1869H23.0281V7.64593H37.9461V15.0227Z" fill="#076787"/>
<path d="M50.4652 13.5564L46.648 5.39893H41.2402L48.1589 18.4179V26.5754H52.8509V18.4179L59.7696 5.39893H54.3619L50.4652 13.5564Z" fill="#076787"/>
<path d="M73.0044 19.5164C73.0044 23.9022 69.449 27.4575 65.0632 27.4575C60.6775 27.4575 57.1221 23.9022 57.1221 19.5164C57.1221 15.1306 60.6775 11.5752 65.0632 11.5752C69.449 11.5752 73.0044 15.1306 73.0044 19.5164ZM61.524 19.5164C61.524 21.471 63.1086 23.0556 65.0632 23.0556C67.0179 23.0556 68.4666 21.471 68.4666 19.5164C68.4666 17.5617 67.0179 15.9772 65.0632 15.9772C63.1086 15.9772 61.524 17.5617 61.524 19.5164Z" fill="#076787"/>
<path d="M88.8862 19.5164C88.8862 23.9022 85.3309 27.4575 80.9451 27.4575C76.5593 27.4575 73.0039 23.9022 73.0039 19.5164C73.0039 15.1306 76.5593 11.5752 80.9451 11.5752C85.3309 11.5752 88.8862 15.1306 88.8862 19.5164ZM77.4059 19.5164C77.4059 21.471 78.9904 23.0556 80.9451 23.0556C82.8997 23.0556 84.3484 21.471 84.3484 19.5164C84.3484 17.5617 82.8997 15.9772 80.9451 15.9772C78.9904 15.9772 77.4059 17.5617 77.4059 19.5164Z" fill="#076787"/>
<rect x="113.593" y="11.5752" width="5.29411" height="15" fill="#076787"/>
<ellipse cx="116.24" cy="8.04598" rx="2.64706" ry="2.64706" fill="#076787"/>
</svg>
